<svg width="37" height="36" viewBox="0 0 37 36" fill="none" xmlns="http://www.w3.org/2000/svg">
<g clip-path="url(#clip0_4274_300)">
<path d="M31.5391 0.607483H4.96094C2.69467 0.607483 0.857498 2.44465 0.857498 4.71092V31.2862C0.857498 33.5525 2.69467 35.3897 4.96094 35.3897H31.5391C33.8053 35.3897 35.6425 33.5525 35.6425 31.2862V4.71092C35.6425 2.44465 33.8053 0.607483 31.5391 0.607483Z" fill="url(#paint0_linear_4274_300)"/>
<path d="M15.0522 16.9538C15.0522 16.9538 18.0053 16.7344 18.0053 13.2722C18.0053 9.81 15.5894 8.11969 12.5294 8.11969H2.46063V27.4697H12.5294C12.5294 27.4697 18.6747 27.6638 18.6747 21.7575C18.6747 21.7575 18.9447 16.9538 15.0522 16.9538ZM6.89594 11.5594H12.5209C12.5209 11.5594 13.8906 11.5594 13.8906 13.5731C13.8906 15.5869 13.0863 15.8794 12.1722 15.8794H6.89876L6.89594 11.5594ZM12.2678 24.03H6.89876V18.8606H12.5238C12.5238 18.8606 14.5628 18.8325 14.5628 21.5184C14.5684 23.7544 13.0778 24.0075 12.2706 24.03H12.2678ZM26.8731 13.0444C19.4313 13.0444 19.4397 20.4778 19.4397 20.4778C19.4397 20.4778 18.9278 27.8747 26.8731 27.8747C26.8731 27.8747 33.4938 28.2516 33.4938 22.7306H30.0906C30.0906 22.7306 30.2031 24.8119 26.9969 24.8119C26.9969 24.8119 23.5909 25.0397 23.5909 21.4369H33.6175C33.6175 21.4369 34.7059 13.0444 26.8731 13.0444ZM29.8994 18.8606H23.5431C23.5431 18.8606 23.9594 15.8794 26.9491 15.8794C29.9388 15.8794 29.8994 18.8606 29.8994 18.8606ZM22.7106 9.26156H30.6925V11.6438H22.7106V9.26156Z" fill="white"/>
</g>
<defs>
<linearGradient id="paint0_linear_4274_300" x1="18.25" y1="0.607483" x2="18.25" y2="35.3925" gradientUnits="userSpaceOnUse">
<stop stop-color="#005CFF"/>
<stop offset="1" stop-color="#0047AD"/>
</linearGradient>
<clipPath id="clip0_4274_300">
<rect width="36" height="36" fill="white" transform="translate(0.25)"/>
</clipPath>
</defs>
</svg>
