<svg width="37" height="36" viewBox="0 0 37 36" fill="none" xmlns="http://www.w3.org/2000/svg">
<g clip-path="url(#clip0_4274_319)">
<path d="M27.8125 0H8.6875C4.0276 0 0.25 3.7776 0.25 8.4375V27.5625C0.25 32.2224 4.0276 36 8.6875 36H27.8125C32.4724 36 36.25 32.2224 36.25 27.5625V8.4375C36.25 3.7776 32.4724 0 27.8125 0Z" fill="#F0F0F0"/>
<path d="M6.10506 28.5524H10.5795V17.6859L4.1875 12.892V26.6348C4.1875 27.6958 5.04728 28.5524 6.10506 28.5524Z" fill="#4285F4"/>
<path d="M25.9204 28.5523H30.3949C31.456 28.5523 32.3125 27.6926 32.3125 26.6348V12.8918L25.9204 17.6858" fill="#34A853"/>
<path d="M25.9204 9.37616V17.6858L32.3125 12.8919V10.3348C32.3125 7.96344 29.6055 6.61147 27.7103 8.03375" fill="#FBBC04"/>
<path d="M10.5796 17.6858V9.37632L18.25 15.1289L25.9204 9.37604V17.6857L18.25 23.4387" fill="#EA4335"/>
<path d="M4.1875 10.335V12.8918L10.5795 17.6859V9.37634L8.78973 8.03393C6.8913 6.61165 4.1875 7.96362 4.1875 10.335Z" fill="#C5221F"/>
</g>
<defs>
<clipPath id="clip0_4274_319">
<rect width="36" height="36" fill="white" transform="translate(0.25)"/>
</clipPath>
</defs>
</svg>
