<svg width="37" height="36" viewBox="0 0 37 36" fill="none" xmlns="http://www.w3.org/2000/svg">
<g clip-path="url(#clip0_4274_299)">
<rect x="2" y="2" width="32" height="32" fill="white"/>
<path d="M30.9236 30.6741H25.5896V22.3206C25.5896 20.3286 25.554 17.7643 22.8153 17.7643C20.0371 17.7643 19.612 19.9347 19.612 22.1756V30.6736H14.2781V13.4954H19.3987V15.843H19.4704C19.9829 14.9668 20.7234 14.246 21.6131 13.7573C22.5028 13.2687 23.5084 13.0304 24.5228 13.068C29.9291 13.068 30.9258 16.6242 30.9258 21.2504L30.9236 30.6741ZM8.25935 11.1474C6.54977 11.1477 5.16363 9.76193 5.16335 8.05236C5.16306 6.34278 6.54864 4.95664 8.25822 4.95636C9.9678 4.95593 11.3539 6.34165 11.3542 8.05123C11.3544 8.8722 11.0284 9.65962 10.448 10.2403C9.8676 10.8209 9.08032 11.1472 8.25935 11.1474ZM10.9264 30.6743H5.58677V13.4954H10.9263L10.9264 30.6743ZM33.5828 0.00255907H2.90646C1.45661 -0.0137534 0.267627 1.14767 0.249908 2.59751V33.4018C0.267065 34.8524 1.45591 36.0149 2.90631 35.9997H33.5828C35.0363 36.0177 36.2298 34.8552 36.2499 33.4018V2.59512C36.2292 1.14247 35.0356 -0.0188159 33.5828 0.00016845" fill="#0A66C2"/>
</g>
<defs>
<clipPath id="clip0_4274_299">
<rect width="36" height="36" fill="white" transform="translate(0.25)"/>
</clipPath>
</defs>
</svg>
