<svg width="37" height="36" viewBox="0 0 37 36" fill="none" xmlns="http://www.w3.org/2000/svg">
<path d="M33.1945 28.2825C32.9942 29.1432 32.5219 29.9164 31.8475 30.4875C31.0946 31.2532 30.196 31.8603 29.2046 32.273C28.2133 32.6858 27.1493 32.8957 26.0755 32.8905H25.5385C23.3096 32.7743 21.125 32.223 19.108 31.2675C18.619 31.038 18.1435 30.8235 17.578 30.5625C15.2141 29.2274 13.0444 27.5745 11.1295 25.65C8.64032 23.3155 6.60056 20.5441 5.1115 17.4735C4.29172 15.7984 3.73952 14.0051 3.475 12.159C3.10544 10.2352 3.32393 8.24478 4.102 6.447C4.58599 5.63083 5.17839 4.88403 5.863 4.227C6.17571 3.88586 6.55385 3.61113 6.97493 3.41915C7.396 3.22717 7.85139 3.12186 8.314 3.1095C8.81844 3.16282 9.30715 3.31633 9.75147 3.56103C10.1958 3.80573 10.5868 4.13669 10.9015 4.5345C11.6065 5.3145 12.4315 6.0645 13.1815 6.8595L14.1475 7.8105C14.7175 8.31 15.07 9.0135 15.127 9.7695C15.1285 10.4655 14.872 11.136 14.407 11.6535C14.1142 12.0164 13.8028 12.3638 13.474 12.6945L13.1515 13.032C12.9637 13.2065 12.8171 13.4207 12.7225 13.659C12.6445 13.89 12.6175 14.136 12.6475 14.379C12.8935 15.045 13.279 15.651 13.78 16.155C14.56 17.211 15.31 18.1305 16.153 19.218C17.6069 20.8955 19.3306 22.3185 21.253 23.4285C21.4375 23.5785 21.658 23.679 21.895 23.7195C22.105 23.751 22.3165 23.7195 22.507 23.6265C23.0911 23.3138 23.6108 22.8934 24.0385 22.3875C24.5785 21.7215 25.3615 21.2985 26.2135 21.207C26.6225 21.2085 27.027 21.292 27.4031 21.4525C27.7793 21.613 28.1194 21.8473 28.4035 22.1415C28.7535 22.4435 29.085 22.765 29.398 23.106L29.857 23.5965L30.3325 24.0555C30.622 24.3465 30.898 24.6075 31.1725 24.9135C31.6725 25.3435 32.1375 25.808 32.5675 26.307C33.007 26.868 33.229 27.57 33.1945 28.2825Z" fill="#F0F0F0"/>
</svg>
